<?xml version="1.0" standalone="no"?><!DOCTYPE svg PUBLIC "-//W3C//DTD SVG 1.1//EN" "http://www.w3.org/Graphics/SVG/1.1/DTD/svg11.dtd"><svg class="icon" width="200px" height="200.00px" viewBox="0 0 1024 1024" version="1.1" xmlns="http://www.w3.org/2000/svg"><path d="M0 0h1024v1024H0z" fill="#FFFFFF" /><path d="M321.664 233.856a367.232 367.232 0 0 0-179.52 317.12A370.304 370.304 0 0 0 512 920.832a370.304 370.304 0 0 0 369.856-369.856 368.768 368.768 0 0 0-169.856-311.168s9.472-11.84 18.624-25.984c9.152-14.208 14.464-25.344 14.464-25.344a429.44 429.44 0 0 1 197.824 362.496c0 237.568-193.344 430.912-430.912 430.912s-430.912-193.344-430.912-430.912a433.472 433.472 0 0 1 209.152-369.536" fill="#323333" /><path d="M473.6 42.048h76.8v603.392H473.6z" fill="#333333" /></svg>